<?xml version="1.0" encoding="utf-8"?>
<!-- Generator: Adobe Illustrator 19.2.0, SVG Export Plug-In . SVG Version: 6.00 Build 0)  -->
<svg version="1.1" id="Layer_1" xmlns="http://www.w3.org/2000/svg" xmlns:xlink="http://www.w3.org/1999/xlink" x="0px" y="0px"
	 viewBox="0 0 250 250" style="enable-background:new 0 0 250 250;" xml:space="preserve">
<style type="text/css">
	.st0{fill:#434C6D;}
	.st1{fill:#556080;}
	.st2{fill:#9D91FD;}
	.st3{fill:#7672CE;}
</style>
<g>
	<polygon class="st0" points="-235,249.9 -347,193.9 -347,56.1 -235,112.1 	"/>
	<polygon class="st1" points="-235,249.9 -123,193.9 -123,56.1 -235,112.1 	"/>
	<polygon class="st2" points="-347,56.1 -239.3,0.1 -123,56.1 -235,112.1 	"/>
</g>
<g>
	<g>
		<g>
			<g>
				<path class="st0" d="M125.2,104c-11.9,0-21.7,9.7-21.7,21.7c0,11.9,9.7,21.7,21.7,21.7c11.9,0,21.7-9.7,21.7-21.7
					C146.8,113.7,137.1,104,125.2,104z"/>
			</g>
		</g>
		<g>
			<path class="st2" d="M249,128.4c0.2-7.5-3.1-14.7-9.6-21.4c0,0,0,0,0,0c0-6.4-5.2-11.6-11.6-11.6c-1.1,0-2.2,0.1-3.2,0.5
				c-4-2.3-8.4-4.5-13-6.4c-3.1-1.3-6.6-2.6-10.7-3.9c8.7-31.5,5.5-54.8-8.9-64c-15.1-9.7-40-1.1-66.8,23.2
				C98.4,20.3,73.5,11.7,58.4,21.4C49.2,27.3,44.5,38.9,44.7,55c-2.9,2.2-4.6,5.6-4.6,9.2c0,4.6,2.7,8.7,6.8,10.5
				c0.5,2.4,1.1,5.1,1.9,8C19,91.8,1.7,106.4,1.4,123c-0.3,14.9,13,28.8,37.4,39c3.1,1.3,6.7,2.6,10.8,4c-1.2,4.1-2,7.8-2.7,11.2
				c-5.2,26-1.1,44.8,11.5,52.8c15.2,9.7,40.1,1.1,66.8-23.2c19.3,17.6,37.8,27.2,52.2,27.2c5.5,0,10.4-1.4,14.6-4
				c12.6-8.1,16.7-26.8,11.5-52.8c-0.5-2.6-1.2-5.4-2-8.5C231.4,159.6,248.6,145,249,128.4z M64.7,220.1c-8-5.1-10.4-20.4-6.4-40.7
				c0.6-3,1.4-6.3,2.4-10c11.1,3,23.3,5.2,36.2,6.6c6.4,8.2,13,15.8,19.7,22.7C95.1,218.1,74.8,226.6,64.7,220.1z M64.7,31.2
				c10.1-6.5,30.5,2,52,21.5c-6.4,6.5-12.8,13.7-18.9,21.5c-13.4,1-26.1,2.8-37.6,5.5c-0.5-2.1-1-4.2-1.5-6.3
				c2.8-2.2,4.5-5.6,4.5-9.2c0-4.6-2.8-8.7-6.8-10.6C56.5,45.4,58,35.5,64.7,31.2z M64.2,158.2c2.2-6.4,4.9-13,7.9-19.6
				c2.9,5.2,6,10.3,9.2,15.3c1.9,3,3.9,6,6.1,9.1C79.1,161.7,71.4,160.1,64.2,158.2z M81.3,97.5c-3.2,5-6.3,10.1-9.1,15.2
				c-3.3-7.3-6.1-14.5-8.5-21.7c7.8-1.8,16.1-3.2,24.8-4.2C85.9,90.4,83.5,94,81.3,97.5z M78.5,125.6c3.9-7.5,8.2-14.9,12.6-21.8
				c3.8-6,8.1-12.1,12.8-18.3c7.3-0.4,14.7-0.5,22.2-0.4c7.1,0.2,14.1,0.6,21.1,1.2c4.4,5.9,8.5,11.7,12.1,17.4
				c4.4,6.9,8.7,14.3,12.6,21.8c-4,7.6-8.2,15-12.6,21.9c-3.9,6-8.2,12.2-12.8,18.3c-7.3,0.4-14.7,0.5-22.2,0.4
				c-7-0.1-14.1-0.6-21.1-1.2c-4.4-5.9-8.5-11.7-12.1-17.4C86.7,140.6,82.5,133.3,78.5,125.6z M161.9,164.5
				c2.5-3.5,4.9-7.1,7.1-10.6c3.2-5,6.3-10.1,9.2-15.3c3.3,7.3,6.2,14.6,8.6,21.7C179.1,162.1,170.7,163.5,161.9,164.5z M169.1,97.5
				c-1.9-3-4-6.1-6.1-9.1c8.2,1.3,15.9,2.8,23.1,4.7c-2.2,6.4-4.9,13-7.9,19.6C175.4,107.6,172.3,102.6,169.1,97.5z M189.5,82
				c-11.1-3-23.3-5.2-36.1-6.6c-6.4-8.2-13-15.8-19.7-22.7c21.6-19.4,41.9-27.9,52.1-21.5C195.2,37.3,196.6,56.2,189.5,82z
				 M126.3,73.5c-2.3,0-4.5-0.1-6.7-0.1c-2,0-4,0-6,0.1c3.8-4.5,7.7-8.7,11.6-12.7c4.1,4.1,8.1,8.5,12,13.2
				C133.4,73.7,129.8,73.6,126.3,73.5z M52.1,94.1c3.3,10,7.7,20.6,13.2,31.6c-5,10-9.1,19.8-12.3,29.1c-3.7-1.2-6.9-2.4-9.7-3.6
				c-19.2-8-30.5-18.5-30.2-28C13.3,112.3,27.8,101.5,52.1,94.1z M124.1,177.8c4.3,0.1,8.6,0.1,12.7,0c-3.8,4.5-7.7,8.7-11.6,12.7
				c-4.1-4.1-8.1-8.5-12-13.2C117,177.6,120.6,177.7,124.1,177.8z M152.5,177.1c13.4-1,26.1-2.8,37.7-5.5c0.8,2.9,1.4,5.4,1.8,7.8
				c4,20.4,1.7,35.6-6.3,40.7c-10.1,6.5-30.5-2-52.1-21.4C140,192.2,146.4,184.9,152.5,177.1z M198.2,157.2
				c-3.3-10.2-7.7-20.7-13.1-31.6c5-10,9.1-19.7,12.3-29.1c3.7,1.2,6.8,2.4,9.7,3.6c3.3,1.4,6.5,2.9,9.4,4.5
				c-0.2,0.8-0.2,1.5-0.2,2.3c0,6.4,5.2,11.6,11.6,11.6c1.8,0,3.6-0.4,5.1-1.2c3,3.7,4.4,7.3,4.4,10.8
				C237.1,139.1,222.5,149.9,198.2,157.2z"/>
		</g>
	</g>
</g>
<g>
	<g>
		<path class="st3" d="M51.7,52.4c-6.9,0-12.5,5.6-12.5,12.5c0,6.9,5.6,12.5,12.5,12.5c6.9,0,12.5-5.6,12.5-12.5
			C64.2,58,58.6,52.4,51.7,52.4z"/>
	</g>
</g>
<g>
	<g>
		<path class="st3" d="M227.8,94.1c-6.9,0-12.5,5.6-12.5,12.5c0,6.9,5.6,12.5,12.5,12.5c6.9,0,12.5-5.6,12.5-12.5
			C240.3,99.7,234.7,94.1,227.8,94.1z"/>
	</g>
</g>
</svg>
